<svg width="200" height="200" viewBox="0 0 200 200" xmlns="http://www.w3.org/2000/svg">
  <defs>
    <pattern id="geometric" x="0" y="0" width="200" height="173.2" patternUnits="userSpaceOnUse">
      <!-- Isometric cube pattern with striped lines -->
      <g stroke="#1F1E1E" stroke-width="1.5" fill="none" opacity="0.08">
        
        <!-- First row of cubes -->
        <!-- Cube 1 -->
        <g transform="translate(0,43.3)">
          <!-- Top face -->
          <path d="M50,0 L100,0 L150,50 L100,50 L50,50 Z" />
          <!-- Left face with vertical stripes -->
          <g>
            <path d="M50,0 L50,50 L100,100 L100,50 Z" />
            <line x1="55" y1="5" x2="55" y2="50" />
            <line x1="60" y1="10" x2="60" y2="55" />
            <line x1="65" y1="15" x2="65" y2="60" />
            <line x1="70" y1="20" x2="70" y2="65" />
            <line x1="75" y1="25" x2="75" y2="70" />
            <line x1="80" y1="30" x2="80" y2="75" />
            <line x1="85" y1="35" x2="85" y2="80" />
            <line x1="90" y1="40" x2="90" y2="85" />
            <line x1="95" y1="45" x2="95" y2="90" />
          </g>
          <!-- Right face with diagonal stripes -->
          <g>
            <path d="M100,50 L100,100 L150,50 L150,0 Z" />
            <line x1="105" y1="45" x2="105" y2="95" />
            <line x1="110" y1="40" x2="110" y2="90" />
            <line x1="115" y1="35" x2="115" y2="85" />
            <line x1="120" y1="30" x2="120" y2="80" />
            <line x1="125" y1="25" x2="125" y2="75" />
            <line x1="130" y1="20" x2="130" y2="70" />
            <line x1="135" y1="15" x2="135" y2="65" />
            <line x1="140" y1="10" x2="140" y2="60" />
            <line x1="145" y1="5" x2="145" y2="55" />
          </g>
        </g>

        <!-- Cube 2 -->
        <g transform="translate(100,43.3)">
          <!-- Top face -->
          <path d="M50,0 L100,0 L150,50 L100,50 L50,50 Z" />
          <!-- Left face with vertical stripes -->
          <g>
            <path d="M50,0 L50,50 L100,100 L100,50 Z" />
            <line x1="55" y1="5" x2="55" y2="50" />
            <line x1="60" y1="10" x2="60" y2="55" />
            <line x1="65" y1="15" x2="65" y2="60" />
            <line x1="70" y1="20" x2="70" y2="65" />
            <line x1="75" y1="25" x2="75" y2="70" />
            <line x1="80" y1="30" x2="80" y2="75" />
            <line x1="85" y1="35" x2="85" y2="80" />
            <line x1="90" y1="40" x2="90" y2="85" />
            <line x1="95" y1="45" x2="95" y2="90" />
          </g>
          <!-- Right face with diagonal stripes -->
          <g>
            <path d="M100,50 L100,100 L150,50 L150,0 Z" />
            <line x1="105" y1="45" x2="105" y2="95" />
            <line x1="110" y1="40" x2="110" y2="90" />
            <line x1="115" y1="35" x2="115" y2="85" />
            <line x1="120" y1="30" x2="120" y2="80" />
            <line x1="125" y1="25" x2="125" y2="75" />
            <line x1="130" y1="20" x2="130" y2="70" />
            <line x1="135" y1="15" x2="135" y2="65" />
            <line x1="140" y1="10" x2="140" y2="60" />
            <line x1="145" y1="5" x2="145" y2="55" />
          </g>
        </g>

        <!-- Second row offset cubes -->
        <!-- Cube 3 -->
        <g transform="translate(50,130)">
          <!-- Top face -->
          <path d="M50,0 L100,0 L150,50 L100,50 L50,50 Z" />
          <!-- Left face with vertical stripes -->
          <g>
            <path d="M50,0 L50,50 L100,100 L100,50 Z" />
            <line x1="55" y1="5" x2="55" y2="50" />
            <line x1="60" y1="10" x2="60" y2="55" />
            <line x1="65" y1="15" x2="65" y2="60" />
            <line x1="70" y1="20" x2="70" y2="65" />
            <line x1="75" y1="25" x2="75" y2="70" />
            <line x1="80" y1="30" x2="80" y2="75" />
            <line x1="85" y1="35" x2="85" y2="80" />
            <line x1="90" y1="40" x2="90" y2="85" />
            <line x1="95" y1="45" x2="95" y2="90" />
          </g>
          <!-- Right face with diagonal stripes -->
          <g>
            <path d="M100,50 L100,100 L150,50 L150,0 Z" />
            <line x1="105" y1="45" x2="105" y2="95" />
            <line x1="110" y1="40" x2="110" y2="90" />
            <line x1="115" y1="35" x2="115" y2="85" />
            <line x1="120" y1="30" x2="120" y2="80" />
            <line x1="125" y1="25" x2="125" y2="75" />
            <line x1="130" y1="20" x2="130" y2="70" />
            <line x1="135" y1="15" x2="135" y2="65" />
            <line x1="140" y1="10" x2="140" y2="60" />
            <line x1="145" y1="5" x2="145" y2="55" />
          </g>
        </g>

        <!-- Cube 4 -->
        <g transform="translate(150,130)">
          <!-- Top face -->
          <path d="M50,0 L100,0 L150,50 L100,50 L50,50 Z" />
          <!-- Left face with vertical stripes -->
          <g>
            <path d="M50,0 L50,50 L100,100 L100,50 Z" />
            <line x1="55" y1="5" x2="55" y2="50" />
            <line x1="60" y1="10" x2="60" y2="55" />
            <line x1="65" y1="15" x2="65" y2="60" />
            <line x1="70" y1="20" x2="70" y2="65" />
            <line x1="75" y1="25" x2="75" y2="70" />
            <line x1="80" y1="30" x2="80" y2="75" />
            <line x1="85" y1="35" x2="85" y2="80" />
            <line x1="90" y1="40" x2="90" y2="85" />
            <line x1="95" y1="45" x2="95" y2="90" />
          </g>
          <!-- Right face with diagonal stripes -->
          <g>
            <path d="M100,50 L100,100 L150,50 L150,0 Z" />
            <line x1="105" y1="45" x2="105" y2="95" />
            <line x1="110" y1="40" x2="110" y2="90" />
            <line x1="115" y1="35" x2="115" y2="85" />
            <line x1="120" y1="30" x2="120" y2="80" />
            <line x1="125" y1="25" x2="125" y2="75" />
            <line x1="130" y1="20" x2="130" y2="70" />
            <line x1="135" y1="15" x2="135" y2="65" />
            <line x1="140" y1="10" x2="140" y2="60" />
            <line x1="145" y1="5" x2="145" y2="55" />
          </g>
        </g>

      </g>
    </pattern>
  </defs>
  
  <rect width="100%" height="100%" fill="url(#geometric)" />
</svg>
